<svg width="24" height="28" viewBox="0 0 24 28" fill="none" xmlns="http://www.w3.org/2000/svg">
<path d="M23.424 21.8208C23.0005 22.7991 22.4993 23.6995 21.9186 24.5274C21.127 25.656 20.4789 26.4372 19.9794 26.871C19.2051 27.5831 18.3755 27.9478 17.4871 27.9685C16.8494 27.9685 16.0803 27.7871 15.185 27.4189C14.2868 27.0525 13.4613 26.871 12.7066 26.871C11.915 26.871 11.066 27.0525 10.1579 27.4189C9.2485 27.7871 8.51585 27.9789 7.9557 27.9979C7.1038 28.0342 6.25467 27.6592 5.40709 26.871C4.86612 26.3992 4.18947 25.5903 3.37888 24.4444C2.50918 23.2208 1.79417 21.8018 1.23401 20.1841C0.634105 18.4367 0.333374 16.7447 0.333374 15.1065C0.333374 13.2301 0.738843 11.6117 1.55099 10.2554C2.18927 9.16606 3.0384 8.30672 4.10115 7.67588C5.16391 7.04503 6.31222 6.72356 7.54885 6.703C8.22549 6.703 9.11282 6.9123 10.2155 7.32364C11.3151 7.73637 12.0211 7.94567 12.3306 7.94567C12.5621 7.94567 13.3464 7.70094 14.676 7.21303C15.9334 6.76055 16.9946 6.5732 17.8639 6.647C20.2197 6.83712 21.9895 7.76575 23.1665 9.43879C21.0596 10.7153 20.0174 12.5033 20.0382 14.797C20.0572 16.5836 20.7053 18.0703 21.9791 19.2508C22.5564 19.7986 23.201 20.2221 23.9183 20.5228C23.7627 20.9739 23.5986 21.406 23.424 21.8208ZM18.0212 0.560465C18.0212 1.96078 17.5096 3.26826 16.4899 4.47844C15.2593 5.91712 13.7709 6.74845 12.1568 6.61727C12.1362 6.44927 12.1243 6.27247 12.1243 6.08667C12.1243 4.74236 12.7095 3.30369 13.7487 2.12738C14.2676 1.53179 14.9275 1.03657 15.7277 0.641523C16.5262 0.252369 17.2815 0.037159 17.9918 0.000305176C18.0126 0.187506 18.0212 0.374719 18.0212 0.560447V0.560465Z" fill="black"/>
</svg>
