<svg width="302" height="91" viewBox="0 0 302 91" fill="none" xmlns="http://www.w3.org/2000/svg">
<g clip-path="url(#clip0_1_719)">
<path d="M38.1728 91C36.8814 91 35.6375 90.4825 34.7259 89.5626L11.1767 65.7968C-3.72202 50.7611 -3.72202 26.3149 11.1672 11.2888C18.3839 4.00569 27.9745 0 38.1728 0C48.3712 0 57.9618 4.00569 65.1785 11.2888C72.3952 18.5718 76.3644 28.2411 76.3644 38.5428C76.3644 48.8445 72.3952 58.5137 65.1785 65.7968L41.6292 89.5626C40.7177 90.4825 39.4737 91 38.1823 91H38.1728ZM38.1728 9.85131C30.5763 9.85131 23.4356 12.8316 18.0705 18.2556C6.98908 29.4389 6.98908 47.6466 18.0705 58.8299L38.1728 79.1171L58.2751 58.8299C63.6402 53.4155 66.6028 46.2091 66.6028 38.5428C66.6028 30.8764 63.6497 23.67 58.2751 18.2556C52.9006 12.8412 45.7694 9.85131 38.1728 9.85131Z" fill="#00D0C1"/>
<path d="M41.781 43.8613L40.1572 42.2226C39.597 42.558 38.9513 42.7593 38.2486 42.7593C36.1975 42.7593 34.5263 41.0822 34.5263 39.0027C34.5263 38.3032 34.7257 37.642 35.058 37.0766L33.4343 35.4379C32.8266 34.8246 31.801 35.0258 31.4592 35.8212L25.1826 50.5694C24.7458 51.5852 25.7713 52.6202 26.7778 52.1793L41.3916 45.845C42.1798 45.5 42.3792 44.465 41.7715 43.8517L41.781 43.8613Z" fill="#00D0C1"/>
<path d="M49.7289 25.8261L35.1151 32.1605C34.3269 32.5055 34.1275 33.5404 34.7352 34.1537L36.359 35.7924C36.9192 35.457 37.5649 35.2558 38.2676 35.2558C40.3187 35.2558 41.9899 36.9328 41.9899 39.0123C41.9899 39.7119 41.7905 40.3731 41.4582 40.9385L43.0819 42.5772C43.6896 43.1905 44.7152 42.9893 45.057 42.1939L51.3336 27.4457C51.7704 26.4299 50.7449 25.3949 49.7384 25.8357L49.7289 25.8261Z" fill="#D0000F"/>
<path d="M99.3721 74.6993C98.5174 74.2298 97.8432 73.5781 97.359 72.754C96.8747 71.9299 96.6278 70.9907 96.6278 69.9462C96.6278 68.9016 96.8747 67.9721 97.3685 67.1384C97.8622 66.3142 98.5364 65.6626 99.391 65.193C100.246 64.7235 101.205 64.4839 102.268 64.4839C103.132 64.4839 103.92 64.6372 104.623 64.9343C105.335 65.2409 105.934 65.6818 106.427 66.2567L105.164 67.4546C104.405 66.6305 103.465 66.2088 102.354 66.2088C101.632 66.2088 100.986 66.3717 100.417 66.688C99.8468 67.0042 99.4005 67.445 99.0777 68.0104C98.7548 68.5758 98.5934 69.2179 98.5934 69.9366C98.5934 70.6553 98.7548 71.2974 99.0777 71.8628C99.4005 72.4282 99.8468 72.869 100.417 73.1852C100.986 73.5015 101.632 73.6644 102.354 73.6644C103.465 73.6644 104.405 73.2427 105.164 72.409L106.427 73.6261C105.934 74.201 105.335 74.6418 104.614 74.9485C103.901 75.2552 103.104 75.3989 102.249 75.3989C101.186 75.3989 100.227 75.1593 99.3721 74.6898V74.6993Z" fill="#00D0C1"/>
<path d="M108.061 65.4901C107.833 65.2697 107.719 65.0014 107.719 64.6755C107.719 64.3497 107.833 64.0814 108.061 63.861C108.288 63.6406 108.573 63.5352 108.915 63.5352C109.257 63.5352 109.542 63.6406 109.77 63.8418C109.998 64.0527 110.112 64.3114 110.112 64.618C110.112 64.9535 109.998 65.2314 109.77 65.4613C109.542 65.6913 109.257 65.8063 108.906 65.8063C108.554 65.8063 108.279 65.7009 108.051 65.4805L108.061 65.4901ZM107.975 67.1575H109.855V75.2552H107.975V67.1575Z" fill="#00D0C1"/>
<path d="M116.987 74.8143C116.768 74.9964 116.502 75.1306 116.179 75.2264C115.866 75.3127 115.534 75.3606 115.182 75.3606C114.299 75.3606 113.616 75.1306 113.141 74.661C112.657 74.1914 112.419 73.5206 112.419 72.6294V68.7291H111.099V67.215H112.419V65.3655H114.299V67.215H116.445V68.7291H114.299V72.5815C114.299 72.9744 114.394 73.2811 114.584 73.4823C114.774 73.6931 115.049 73.789 115.41 73.789C115.828 73.789 116.179 73.674 116.464 73.4536L116.987 74.8048V74.8143Z" fill="#00D0C1"/>
<path d="M125.751 67.1575L121.991 75.9068C121.639 76.7884 121.212 77.4017 120.718 77.7659C120.215 78.1205 119.607 78.3025 118.905 78.3025C118.506 78.3025 118.107 78.2355 117.718 78.1013C117.328 77.9671 117.005 77.7851 116.759 77.5551L117.509 76.156C117.689 76.3285 117.898 76.4626 118.145 76.568C118.392 76.6734 118.639 76.7214 118.886 76.7214C119.218 76.7214 119.493 76.6351 119.702 76.4626C119.921 76.2901 120.12 76.0026 120.3 75.6001L120.433 75.2839L116.929 67.1575H118.886L121.411 73.1469L123.947 67.1575H125.751Z" fill="#00D0C1"/>
<path d="M131.857 75.0539C131.097 74.8239 130.499 74.5173 130.062 74.1244L130.736 72.5911C131.164 72.9361 131.695 73.214 132.322 73.4344C132.949 73.6548 133.575 73.7602 134.212 73.7602C134.99 73.7602 135.579 73.6356 135.959 73.3769C136.348 73.1277 136.538 72.7923 136.538 72.3803C136.538 72.0736 136.434 71.8244 136.215 71.6328C135.997 71.4315 135.731 71.2782 135.399 71.1728C135.066 71.0578 134.62 70.9332 134.05 70.7895C133.253 70.5978 132.597 70.4062 132.104 70.2145C131.61 70.0228 131.182 69.7258 130.831 69.3137C130.48 68.9016 130.299 68.3554 130.299 67.6558C130.299 67.0713 130.461 66.5346 130.774 66.0555C131.088 65.5763 131.562 65.193 132.199 64.9151C132.835 64.6276 133.613 64.4935 134.534 64.4935C135.171 64.4935 135.807 64.5701 136.424 64.733C137.041 64.896 137.583 65.1259 138.029 65.4326L137.412 66.9659C136.946 66.6975 136.472 66.4867 135.968 66.343C135.465 66.1992 134.981 66.1322 134.515 66.1322C133.746 66.1322 133.167 66.2663 132.797 66.5251C132.417 66.7838 132.237 67.1384 132.237 67.5696C132.237 67.8763 132.341 68.1254 132.559 68.3171C132.778 68.5087 133.044 68.6621 133.376 68.7675C133.708 68.8825 134.155 69.0071 134.724 69.1508C135.503 69.3329 136.149 69.5245 136.652 69.7162C137.155 69.9174 137.583 70.2145 137.934 70.617C138.285 71.0195 138.466 71.5657 138.466 72.2557C138.466 72.8402 138.304 73.3769 137.991 73.8465C137.678 74.3256 137.193 74.6993 136.557 74.9868C135.911 75.2743 135.133 75.4085 134.212 75.4085C133.404 75.4085 132.616 75.2935 131.857 75.0635V75.0539Z" fill="#00D0C1"/>
<path d="M144.885 74.8143C144.666 74.9964 144.4 75.1306 144.078 75.2264C143.764 75.3127 143.432 75.3606 143.081 75.3606C142.197 75.3606 141.514 75.1306 141.039 74.661C140.555 74.1914 140.317 73.5206 140.317 72.6294V68.7291H138.997V67.215H140.317V65.3655H142.197V67.215H144.343V68.7291H142.197V72.5815C142.197 72.9744 142.292 73.2811 142.482 73.4823C142.672 73.6931 142.948 73.789 143.308 73.789C143.726 73.789 144.078 73.674 144.362 73.4536L144.885 74.8048V74.8143Z" fill="#00D0C1"/>
<path d="M150.934 67.0617V68.8633C150.772 68.8346 150.63 68.8154 150.497 68.8154C149.766 68.8154 149.196 69.0262 148.788 69.4575C148.379 69.8887 148.17 70.502 148.17 71.3165V75.2456H146.29V67.148H148.075V68.3267C148.617 67.4738 149.566 67.0521 150.934 67.0521V67.0617Z" fill="#00D0C1"/>
<path d="M153.706 74.8239C153.051 74.4694 152.548 73.9806 152.177 73.3481C151.817 72.7157 151.627 71.9969 151.627 71.2016C151.627 70.4062 151.807 69.6874 152.177 69.0646C152.538 68.4417 153.051 67.9433 153.706 67.5984C154.361 67.2438 155.093 67.0713 155.9 67.0713C156.707 67.0713 157.457 67.2438 158.112 67.5984C158.767 67.9529 159.271 68.4417 159.641 69.0646C160.002 69.6874 160.192 70.4062 160.192 71.2016C160.192 71.9969 160.011 72.7157 159.641 73.3481C159.271 73.9806 158.767 74.4694 158.112 74.8239C157.457 75.1785 156.726 75.351 155.9 75.351C155.074 75.351 154.361 75.1785 153.706 74.8239ZM157.618 73.0415C158.065 72.5719 158.293 71.9682 158.293 71.2111C158.293 70.4541 158.065 69.8408 157.618 69.3808C157.172 68.9112 156.593 68.6812 155.909 68.6812C155.226 68.6812 154.646 68.9112 154.2 69.3808C153.754 69.8504 153.535 70.4541 153.535 71.2111C153.535 71.9682 153.754 72.5815 154.2 73.0415C154.646 73.5111 155.216 73.741 155.909 73.741C156.602 73.741 157.172 73.5111 157.618 73.0415Z" fill="#00D0C1"/>
<path d="M161.834 63.9952H163.715V75.2456H161.834V63.9952Z" fill="#00D0C1"/>
<path d="M166.032 63.9952H167.912V75.2456H166.032V63.9952Z" fill="#00D0C1"/>
<path d="M96.6278 60.5836V16.4061H115.828C123.823 16.4061 129.188 21.8205 129.188 30.1864C129.188 32.2467 128.837 34.1921 128.134 35.8404C131.344 38.1978 133.215 42.146 133.215 47.0908C133.215 55.2171 127.85 60.574 119.854 60.574H96.6278V60.5836ZM115.657 33.9046C118.458 33.9046 118.981 31.8443 118.981 30.0139C118.981 28.0111 117.699 26.7174 115.714 26.7174H106.845V33.9046H115.657ZM106.845 43.0276V50.2723H119.74C121.725 50.2723 123.007 48.9786 123.007 46.9183C123.007 44.8579 121.953 42.9701 119.389 42.9701C115.42 42.9701 106.845 43.0276 106.845 43.0276Z" fill="white"/>
<path d="M132.284 44.5609C132.284 33.9621 140.802 28.8352 148.104 29.0077C155.396 28.8352 163.857 33.9525 163.857 44.5609C163.857 53.1568 157.732 60.5836 148.104 60.459C138.475 60.574 132.284 53.1568 132.284 44.5609ZM140.688 44.3213C140.688 49.0936 144.363 51.681 148.104 51.8056C151.836 51.6906 155.52 49.0936 155.52 44.3213C155.52 39.549 151.845 37.4311 148.104 37.3161C144.372 37.4311 140.688 39.731 140.688 44.3213Z" fill="white"/>
<path d="M163.629 28.7777H172.09V32.5438C172.669 31.4801 175.47 28.7777 180.493 28.7777C182.886 28.7777 184.985 29.3623 186.742 30.3685L183.238 39.2615C181.842 37.9103 179.971 37.2586 178.101 37.2586C175.005 37.2586 172.09 39.1465 172.09 43.0276V60.574H163.629V28.7777Z" fill="white"/>
<path d="M182.013 44.5609C182.013 33.9621 190.53 28.8352 197.833 29.0077C205.125 28.8352 213.586 33.9525 213.586 44.5609C213.586 53.1568 207.461 60.5836 197.833 60.459C188.204 60.574 182.013 53.1568 182.013 44.5609ZM190.416 44.3213C190.416 49.0936 194.091 51.681 197.833 51.8056C201.564 51.6906 205.249 49.0936 205.249 44.3213C205.249 39.549 201.574 37.4311 197.833 37.3161C194.101 37.4311 190.416 39.731 190.416 44.3213Z" fill="white"/>
<path d="M212.997 28.9502H221.458V32.7163C222.037 31.7197 224.838 28.9502 229.861 28.9502C236.689 28.9502 241.237 33.6075 241.237 40.4977V60.5836H232.777V43.0947C232.777 39.7406 230.555 37.4982 227.231 37.4982C223.727 37.4982 221.458 39.7981 221.458 43.2097V60.5836H212.997V28.9502Z" fill="white"/>
<path d="M255.424 29.0077C258.111 29.0077 260.618 29.7168 262.545 31.1255V16.4061H271.006V60.574H262.545V56.3384C261.434 58.7533 257.18 60.574 254.55 60.574C244.808 60.574 240.079 52.5627 240.079 44.5513C240.079 34.125 248.245 28.9981 255.424 28.9981V29.0077ZM255.832 37.3161C252.452 37.3161 249.062 39.616 249.062 44.3213C249.062 49.2661 252.509 51.8631 255.889 51.8631C259.269 51.8631 262.545 49.3332 262.545 44.1488C262.545 39.616 259.165 37.3161 255.832 37.3161Z" fill="white"/>
<path d="M270.427 44.5609C270.427 33.9621 278.944 28.8352 286.247 29.0077C293.539 28.8352 302 33.9525 302 44.5609C302 53.1568 295.875 60.5836 286.247 60.459C276.618 60.574 270.427 53.1568 270.427 44.5609ZM278.831 44.3213C278.831 49.0936 282.505 51.681 286.247 51.8056C289.978 51.6906 293.663 49.0936 293.663 44.3213C293.663 39.549 289.988 37.4311 286.247 37.3161C282.515 37.4311 278.831 39.731 278.831 44.3213Z" fill="white"/>
</g>
<defs>
<clipPath id="clip0_1_719">
<rect width="302" height="91" fill="white"/>
</clipPath>
</defs>
</svg>
