<svg width="174" height="54" viewBox="0 0 174 54" fill="none" xmlns="http://www.w3.org/2000/svg">
<g clip-path="url(#clip0_1_681)">
<path d="M58.1601 50.87C57.4301 50.48 56.8701 49.93 56.4601 49.24C56.0501 48.54 55.8401 47.76 55.8401 46.89C55.8401 46.02 56.0501 45.23 56.4601 44.54C56.8801 43.84 57.4501 43.3 58.1701 42.91C58.8901 42.52 59.7101 42.32 60.6101 42.32C61.3401 42.32 62.0001 42.45 62.6101 42.7C63.2101 42.95 63.7201 43.32 64.1401 43.81L63.0701 44.82C62.4301 44.12 61.6301 43.78 60.6901 43.78C60.0801 43.78 59.5301 43.91 59.0501 44.18C58.5701 44.45 58.1901 44.82 57.9201 45.29C57.6501 45.77 57.5101 46.3 57.5101 46.91C57.5101 47.52 57.6501 48.05 57.9201 48.53C58.1901 49.01 58.5701 49.38 59.0501 49.64C59.5301 49.91 60.0801 50.04 60.6901 50.04C61.6301 50.04 62.4201 49.69 63.0701 48.98L64.1401 50C63.7201 50.48 63.2101 50.85 62.6101 51.11C62.0001 51.36 61.3401 51.49 60.6101 51.49C59.7101 51.49 58.9001 51.29 58.1701 50.9L58.1601 50.87Z" fill="white"/>
<path d="M65.52 43.14C65.32 42.96 65.23 42.73 65.23 42.46C65.23 42.19 65.33 41.96 65.52 41.78C65.71 41.6 65.96 41.51 66.25 41.51C66.54 41.51 66.78 41.6 66.97 41.77C67.16 41.94 67.26 42.16 67.26 42.43C67.26 42.71 67.16 42.95 66.97 43.14C66.78 43.33 66.54 43.43 66.24 43.43C65.94 43.43 65.71 43.34 65.51 43.16L65.52 43.14ZM65.44 44.54H67.03V51.33H65.44V44.54Z" fill="white"/>
<path d="M73.0701 50.96C72.8801 51.11 72.6601 51.23 72.3901 51.3C72.1201 51.38 71.8401 51.41 71.5401 51.41C70.7901 51.41 70.2201 51.22 69.8101 50.82C69.4001 50.43 69.2001 49.86 69.2001 49.12V45.85H68.0801V44.58H69.2001V43.03H70.7901V44.58H72.6101V45.85H70.7901V49.08C70.7901 49.41 70.8701 49.66 71.0301 49.84C71.1901 50.01 71.4201 50.1 71.7301 50.1C72.0901 50.1 72.3801 50.01 72.6201 49.82L73.0701 50.95V50.96Z" fill="white"/>
<path d="M80.4901 44.54L77.3101 51.88C77.0101 52.62 76.6501 53.14 76.2301 53.44C75.8101 53.74 75.2901 53.89 74.6901 53.89C74.3501 53.89 74.0201 53.83 73.6801 53.72C73.3501 53.61 73.0801 53.46 72.8701 53.26L73.5101 52.09C73.6601 52.23 73.8401 52.35 74.0501 52.43C74.2601 52.51 74.4701 52.56 74.6801 52.56C74.9601 52.56 75.1901 52.49 75.3701 52.34C75.5501 52.2 75.7201 51.95 75.8701 51.61L75.9801 51.34L73.0201 44.52H74.6701L76.8101 49.54L78.9601 44.52H80.4901V44.54Z" fill="white"/>
<path d="M85.6601 51.16C85.0201 50.97 84.5101 50.71 84.1401 50.38L84.7101 49.1C85.0701 49.39 85.5201 49.62 86.0501 49.81C86.5801 49.99 87.1101 50.08 87.6501 50.08C88.3101 50.08 88.8101 49.97 89.1301 49.76C89.4601 49.55 89.6201 49.27 89.6201 48.92C89.6201 48.67 89.5301 48.46 89.3501 48.29C89.1701 48.12 88.9401 48 88.6601 47.9C88.3801 47.81 88.0001 47.7 87.5201 47.58C86.8401 47.42 86.2901 47.26 85.8701 47.1C85.4501 46.94 85.0901 46.69 84.7901 46.34C84.4901 46 84.3401 45.53 84.3401 44.95C84.3401 44.46 84.4701 44.01 84.7401 43.61C85.0101 43.21 85.4101 42.89 85.9501 42.65C86.4901 42.41 87.1501 42.29 87.9301 42.29C88.4701 42.29 89.0101 42.36 89.5301 42.49C90.0601 42.63 90.5101 42.82 90.8901 43.08L90.3701 44.36C89.9801 44.13 89.5701 43.96 89.1501 43.84C88.7301 43.72 88.3101 43.66 87.9201 43.66C87.2701 43.66 86.7801 43.77 86.4601 43.99C86.1401 44.21 85.9801 44.5 85.9801 44.87C85.9801 45.12 86.0701 45.33 86.2501 45.49C86.4301 45.65 86.6601 45.78 86.9401 45.87C87.2201 45.96 87.6001 46.07 88.0801 46.19C88.7401 46.34 89.2801 46.5 89.7101 46.67C90.1301 46.84 90.5001 47.09 90.8001 47.43C91.1001 47.77 91.2501 48.23 91.2501 48.8C91.2501 49.29 91.1201 49.74 90.8501 50.14C90.5801 50.54 90.1801 50.86 89.6401 51.09C89.1001 51.33 88.4401 51.45 87.6601 51.45C86.9701 51.45 86.3101 51.35 85.6701 51.16H85.6601Z" fill="white"/>
<path d="M96.7002 50.96C96.5102 51.11 96.2902 51.23 96.0202 51.3C95.7502 51.38 95.4702 51.41 95.1702 51.41C94.4202 51.41 93.8502 51.22 93.4402 50.82C93.0302 50.43 92.8302 49.86 92.8302 49.12V45.85H91.7102V44.58H92.8302V43.03H94.4202V44.58H96.2402V45.85H94.4202V49.08C94.4202 49.41 94.5002 49.66 94.6602 49.84C94.8202 50.01 95.0502 50.1 95.3602 50.1C95.7202 50.1 96.0102 50.01 96.2502 49.82L96.7002 50.95V50.96Z" fill="white"/>
<path d="M101.81 44.46V45.97C101.67 45.94 101.55 45.93 101.44 45.93C100.82 45.93 100.34 46.11 99.9901 46.47C99.6401 46.83 99.4701 47.35 99.4701 48.03V51.32H97.8801V44.53H99.3901V45.52C99.8501 44.81 100.65 44.45 101.81 44.45V44.46Z" fill="white"/>
<path d="M104.16 50.97C103.61 50.67 103.18 50.26 102.87 49.73C102.56 49.2 102.41 48.6 102.41 47.93C102.41 47.26 102.56 46.66 102.87 46.14C103.18 45.61 103.61 45.2 104.16 44.91C104.71 44.61 105.33 44.46 106.02 44.46C106.71 44.46 107.34 44.61 107.89 44.91C108.44 45.21 108.87 45.62 109.18 46.14C109.49 46.67 109.64 47.26 109.64 47.93C109.64 48.6 109.49 49.2 109.18 49.73C108.87 50.26 108.44 50.67 107.89 50.97C107.34 51.27 106.72 51.42 106.02 51.42C105.32 51.42 104.71 51.27 104.16 50.97ZM107.47 49.47C107.85 49.08 108.04 48.57 108.04 47.93C108.04 47.29 107.85 46.78 107.47 46.39C107.09 46 106.6 45.8 106.02 45.8C105.44 45.8 104.95 46 104.58 46.39C104.2 46.78 104.01 47.29 104.01 47.93C104.01 48.57 104.2 49.08 104.58 49.47C104.96 49.86 105.44 50.06 106.02 50.06C106.6 50.06 107.09 49.86 107.47 49.47Z" fill="white"/>
<path d="M111.05 41.89H112.64V51.33H111.05V41.89Z" fill="white"/>
<path d="M114.59 41.89H116.18V51.33H114.59V41.89Z" fill="white"/>
<path d="M0 37.06V0H16.26C23.03 0 27.57 4.55 27.57 11.56C27.57 13.29 27.27 14.92 26.68 16.3C29.4 18.28 30.98 21.59 30.98 25.74C30.98 32.56 26.43 37.05 19.67 37.05H0V37.06ZM16.11 14.67C18.48 14.67 18.93 12.94 18.93 11.41C18.93 9.73 17.84 8.64 16.16 8.64H8.65V14.67H16.11ZM8.65 22.33V28.41H19.57C21.25 28.41 22.34 27.32 22.34 25.59C22.34 23.86 21.45 22.28 19.28 22.28C15.92 22.28 8.66 22.33 8.66 22.33H8.65Z" fill="black"/>
<path d="M30.1899 23.62C30.1899 14.73 37.3999 10.43 43.5799 10.58C49.7599 10.43 56.9199 14.73 56.9199 23.62C56.9199 30.83 51.7299 37.06 43.5799 36.96C35.4299 37.06 30.1899 30.83 30.1899 23.62ZM37.2999 23.42C37.2999 27.42 40.4099 29.6 43.5699 29.7C46.7299 29.6 49.8399 27.43 49.8399 23.42C49.8399 19.41 46.7299 17.64 43.5699 17.54C40.4099 17.64 37.2999 19.57 37.2999 23.42Z" fill="black"/>
<path d="M56.72 10.38H63.88V13.54C64.37 12.65 66.75 10.38 70.99 10.38C73.02 10.38 74.79 10.87 76.28 11.71L73.32 19.17C72.13 18.03 70.55 17.49 68.97 17.49C66.35 17.49 63.88 19.07 63.88 22.33V37.05H56.72V10.38Z" fill="black"/>
<path d="M72.29 23.62C72.29 14.73 79.5 10.43 85.68 10.58C91.86 10.43 99.02 14.73 99.02 23.62C99.02 30.83 93.83 37.06 85.68 36.96C77.53 37.06 72.29 30.83 72.29 23.62ZM79.4 23.42C79.4 27.42 82.51 29.6 85.67 29.7C88.83 29.6 91.94 27.43 91.94 23.42C91.94 19.41 88.83 17.64 85.67 17.54C82.51 17.64 79.4 19.57 79.4 23.42Z" fill="black"/>
<path d="M98.52 10.52H105.68V13.68C106.17 12.84 108.55 10.52 112.79 10.52C118.57 10.52 122.42 14.42 122.42 20.2V37.05H115.26V22.38C115.26 19.56 113.38 17.69 110.57 17.69C107.61 17.69 105.68 19.62 105.68 22.48V37.06H98.52V10.52Z" fill="black"/>
<path d="M134.44 10.57C136.71 10.57 138.84 11.16 140.47 12.35V0H147.63V37.06H140.47V33.5C139.53 35.53 135.92 37.06 133.7 37.06C125.45 37.06 121.45 30.34 121.45 23.62C121.45 14.87 128.37 10.58 134.44 10.58V10.57ZM134.79 17.54C131.92 17.54 129.06 19.47 129.06 23.42C129.06 27.57 131.97 29.74 134.84 29.74C137.71 29.74 140.47 27.62 140.47 23.27C140.47 19.47 137.6 17.54 134.79 17.54Z" fill="black"/>
<path d="M147.14 23.62C147.14 14.73 154.35 10.43 160.53 10.58C166.71 10.43 173.87 14.73 173.87 23.62C173.87 30.83 168.68 37.06 160.53 36.96C152.38 37.06 147.14 30.83 147.14 23.62ZM154.26 23.42C154.26 27.42 157.37 29.6 160.53 29.7C163.69 29.6 166.8 27.43 166.8 23.42C166.8 19.41 163.69 17.64 160.53 17.54C157.37 17.64 154.26 19.57 154.26 23.42Z" fill="black"/>
</g>
<defs>
<clipPath id="clip0_1_681">
<rect width="173.87" height="53.89" fill="white"/>
</clipPath>
</defs>
</svg>
