<svg width="77" height="91" viewBox="0 0 77 91" fill="none" xmlns="http://www.w3.org/2000/svg">
<path d="M38.1728 91C36.8814 91 35.6375 90.4825 34.7259 89.5626L11.1767 65.7968C-3.72202 50.7611 -3.72202 26.3149 11.1672 11.2888C18.3839 4.00569 27.9745 0 38.1728 0C48.3712 0 57.9618 4.00569 65.1785 11.2888C72.3952 18.5718 76.3644 28.2411 76.3644 38.5428C76.3644 48.8445 72.3952 58.5137 65.1785 65.7968L41.6292 89.5626C40.7177 90.4825 39.4737 91 38.1823 91H38.1728ZM38.1728 9.85131C30.5763 9.85131 23.4356 12.8316 18.0705 18.2556C6.98908 29.4389 6.98908 47.6466 18.0705 58.8299L38.1728 79.1171L58.2751 58.8299C63.6402 53.4155 66.6028 46.2091 66.6028 38.5428C66.6028 30.8764 63.6497 23.67 58.2751 18.2556C52.9006 12.8412 45.7694 9.85131 38.1728 9.85131Z" fill="#00D0C1"/>
<path d="M41.781 43.8613L40.1572 42.2226C39.597 42.558 38.9513 42.7593 38.2486 42.7593C36.1975 42.7593 34.5263 41.0822 34.5263 39.0027C34.5263 38.3032 34.7257 37.642 35.058 37.0766L33.4343 35.4379C32.8266 34.8246 31.801 35.0258 31.4592 35.8212L25.1826 50.5694C24.7458 51.5852 25.7713 52.6202 26.7778 52.1793L41.3916 45.845C42.1798 45.5 42.3792 44.465 41.7715 43.8517L41.781 43.8613Z" fill="#00D0C1"/>
<path d="M49.7289 25.8261L35.1151 32.1605C34.3269 32.5055 34.1275 33.5404 34.7352 34.1537L36.359 35.7924C36.9192 35.457 37.5649 35.2558 38.2676 35.2558C40.3187 35.2558 41.9899 36.9328 41.9899 39.0123C41.9899 39.7119 41.7905 40.3731 41.4582 40.9385L43.0819 42.5772C43.6896 43.1905 44.7152 42.9893 45.057 42.1939L51.3336 27.4457C51.7704 26.4299 50.7449 25.3949 49.7384 25.8357L49.7289 25.8261Z" fill="#D0000F"/>
</svg>
