<svg width="91" height="107" viewBox="0 0 91 107" fill="none" xmlns="http://www.w3.org/2000/svg">
<path d="M45.1799 106.27C43.6599 106.27 42.1999 105.66 41.1199 104.59L13.3899 76.86C-4.14007 59.33 -4.14007 30.81 13.3899 13.28C21.8799 4.79 33.1699 0.110001 45.1799 0.110001C57.1899 0.110001 68.4799 4.79 76.9699 13.28C85.4599 21.77 90.1399 33.06 90.1399 45.07C90.1399 57.08 85.4599 68.37 76.9699 76.86L49.2399 104.59C48.1599 105.67 46.6999 106.27 45.1799 106.27ZM45.1799 11.6C36.2399 11.6 27.8299 15.08 21.5099 21.4C8.45993 34.45 8.45993 55.68 21.5099 68.73L45.1799 92.4L68.8499 68.73C75.1699 62.41 78.6499 54 78.6499 45.06C78.6499 36.12 75.1699 27.71 68.8499 21.39C62.5299 15.07 54.1199 11.59 45.1799 11.59V11.6Z" fill="white"/>
<path d="M49.4398 51.28L47.5298 49.37C46.8698 49.76 46.1098 49.99 45.2898 49.99C42.8698 49.99 40.9098 48.03 40.9098 45.61C40.9098 44.79 41.1398 44.02 41.5298 43.37L39.6198 41.46C38.8998 40.74 37.6898 40.98 37.2898 41.91L29.8998 59.11C29.3898 60.3 30.5898 61.5 31.7798 60.99L48.9798 53.6C49.9098 53.2 50.1398 51.99 49.4298 51.27L49.4398 51.28Z" fill="white"/>
<path d="M58.7898 30.24L41.5898 37.63C40.6598 38.03 40.4298 39.24 41.1398 39.96L43.0498 41.87C43.7098 41.48 44.4698 41.25 45.2898 41.25C47.7098 41.25 49.6698 43.21 49.6698 45.63C49.6698 46.45 49.4398 47.22 49.0498 47.87L50.9598 49.78C51.6798 50.5 52.8898 50.26 53.2898 49.33L60.6798 32.13C61.1898 30.94 59.9898 29.74 58.7998 30.25L58.7898 30.24Z" fill="#D0000F"/>
</svg>
