<svg width="30" height="28" viewBox="0 0 30 28" fill="none" xmlns="http://www.w3.org/2000/svg">
<g clip-path="url(#clip0_11_66)">
<path d="M12.0974 10.1619L10.8078 9.1599V2.31769C10.8078 1.7899 10.3714 1.36154 9.83377 1.36154C9.2961 1.36154 8.85974 1.7899 8.85974 2.31769V7.64918L1.57792 1.9926C1.28571 1.76695 0.884416 1.72105 0.549351 1.88169C0.214286 2.04232 0 2.37506 0 2.74222V26.9787C0 27.5065 0.436364 27.9348 0.974026 27.9348C1.51169 27.9348 1.94805 27.5065 1.94805 26.9787V4.71571L10.5195 11.3743V12.9042H5.37662C4.83896 12.9042 4.4026 13.3325 4.4026 13.8603C4.4026 14.3881 4.83896 14.8165 5.37662 14.8165H10.5195V17.5358H5.37662C4.83896 17.5358 4.4026 17.9641 4.4026 18.4919C4.4026 19.0197 4.83896 19.4481 5.37662 19.4481H10.5195V22.1674H5.37662C4.83896 22.1674 4.4026 22.5957 4.4026 23.1235C4.4026 23.6513 4.83896 24.0796 5.37662 24.0796H10.5195V26.9749C10.5195 27.5027 10.9558 27.931 11.4935 27.931C12.0312 27.931 12.4675 27.5027 12.4675 26.9749V10.9116C12.4675 10.6209 12.3312 10.3417 12.0974 10.1619Z" fill="#00D0C1"/>
<path d="M29.026 6.79631H26.4935V3.97376C26.4935 3.44596 26.0572 3.01761 25.5195 3.01761H24.7481V0.956149C24.7481 0.428355 24.3117 0 23.7741 0C23.2364 0 22.8 0.428355 22.8 0.956149V3.01761H18.5065C17.9689 3.01761 17.5325 3.44596 17.5325 3.97376V6.79631H15C14.4624 6.79631 14.026 7.22466 14.026 7.75246V26.9749C14.026 27.5027 14.4624 27.931 15 27.931C15.5377 27.931 15.9741 27.5027 15.9741 26.9749V8.70861H28.052V26.9749C28.052 27.5027 28.4883 27.931 29.026 27.931C29.5637 27.931 30 27.5027 30 26.9749V7.75246C30 7.22466 29.5637 6.79631 29.026 6.79631ZM19.4805 4.92991H24.5455V6.79631H19.4805V4.92991Z" fill="#00D0C1"/>
<path d="M24.826 12.0131H19.2702C18.7325 12.0131 18.2961 12.4414 18.2961 12.9692C18.2961 13.497 18.7325 13.9254 19.2702 13.9254H24.826C25.3637 13.9254 25.8 13.497 25.8 12.9692C25.8 12.4414 25.3637 12.0131 24.826 12.0131Z" fill="#00D0C1"/>
<path d="M24.826 16.3884H19.2702C18.7325 16.3884 18.2961 16.8168 18.2961 17.3445C18.2961 17.8723 18.7325 18.3007 19.2702 18.3007H24.826C25.3637 18.3007 25.8 17.8723 25.8 17.3445C25.8 16.8168 25.3637 16.3884 24.826 16.3884Z" fill="#00D0C1"/>
<path d="M24.2221 22.2668H19.8078C19.2701 22.2668 18.8337 22.6952 18.8337 23.223V26.9749C18.8337 27.5027 19.2701 27.931 19.8078 27.931C20.3454 27.931 20.7818 27.5027 20.7818 26.9749V24.1791H23.248V26.9749C23.248 27.5027 23.6844 27.931 24.2221 27.931C24.7597 27.931 25.1961 27.5027 25.1961 26.9749V23.223C25.1961 22.6952 24.7597 22.2668 24.2221 22.2668Z" fill="#00D0C1"/>
</g>
<defs>
<clipPath id="clip0_11_66">
<rect width="30" height="27.931" fill="white"/>
</clipPath>
</defs>
</svg>
