<svg width="30" height="18" viewBox="0 0 30 18" fill="none" xmlns="http://www.w3.org/2000/svg">
<path d="M1.5 0C1.20333 0 0.913319 0.0879736 0.666646 0.252796C0.419972 0.417618 0.227713 0.651886 0.114181 0.925975C0.000649922 1.20006 -0.0290551 1.50166 0.0288228 1.79264C0.0867006 2.08361 0.229562 2.35088 0.439341 2.56066C0.649119 2.77044 0.916394 2.9133 1.20737 2.97118C1.49834 3.02906 1.79994 2.99935 2.07403 2.88582C2.34812 2.77229 2.58238 2.58003 2.74721 2.33336C2.91203 2.08668 3 1.79667 3 1.5C3 1.10218 2.84197 0.720645 2.56066 0.43934C2.27936 0.158036 1.89783 0 1.5 0ZM7.5 3H28.5C28.8978 3 29.2794 2.84196 29.5607 2.56066C29.842 2.27936 30 1.89782 30 1.5C30 1.10218 29.842 0.720645 29.5607 0.43934C29.2794 0.158036 28.8978 0 28.5 0H7.5C7.10218 0 6.72065 0.158036 6.43934 0.43934C6.15804 0.720645 6 1.10218 6 1.5C6 1.89782 6.15804 2.27936 6.43934 2.56066C6.72065 2.84196 7.10218 3 7.5 3ZM7.5 7.5C7.20333 7.5 6.91332 7.58797 6.66665 7.7528C6.41997 7.91762 6.22771 8.15189 6.11418 8.42597C6.00065 8.70006 5.97094 9.00166 6.02882 9.29263C6.0867 9.58361 6.22956 9.85088 6.43934 10.0607C6.64912 10.2704 6.91639 10.4133 7.20737 10.4712C7.49834 10.5291 7.79994 10.4994 8.07403 10.3858C8.34811 10.2723 8.58238 10.08 8.7472 9.83336C8.91203 9.58668 9 9.29667 9 9C9 8.60218 8.84196 8.22064 8.56066 7.93934C8.27936 7.65804 7.89783 7.5 7.5 7.5ZM13.5 15C13.2033 15 12.9133 15.088 12.6666 15.2528C12.42 15.4176 12.2277 15.6519 12.1142 15.926C12.0007 16.2001 11.9709 16.5017 12.0288 16.7926C12.0867 17.0836 12.2296 17.3509 12.4393 17.5607C12.6491 17.7704 12.9164 17.9133 13.2074 17.9712C13.4983 18.0291 13.7999 17.9994 14.074 17.8858C14.3481 17.7723 14.5824 17.58 14.7472 17.3334C14.912 17.0867 15 16.7967 15 16.5C15 16.1022 14.842 15.7206 14.5607 15.4393C14.2794 15.158 13.8978 15 13.5 15ZM28.5 7.5H13.5C13.1022 7.5 12.7206 7.65804 12.4393 7.93934C12.158 8.22064 12 8.60218 12 9C12 9.39782 12.158 9.77936 12.4393 10.0607C12.7206 10.342 13.1022 10.5 13.5 10.5H28.5C28.8978 10.5 29.2794 10.342 29.5607 10.0607C29.842 9.77936 30 9.39782 30 9C30 8.60218 29.842 8.22064 29.5607 7.93934C29.2794 7.65804 28.8978 7.5 28.5 7.5ZM28.5 15H19.5C19.1022 15 18.7206 15.158 18.4393 15.4393C18.158 15.7206 18 16.1022 18 16.5C18 16.8978 18.158 17.2794 18.4393 17.5607C18.7206 17.842 19.1022 18 19.5 18H28.5C28.8978 18 29.2794 17.842 29.5607 17.5607C29.842 17.2794 30 16.8978 30 16.5C30 16.1022 29.842 15.7206 29.5607 15.4393C29.2794 15.158 28.8978 15 28.5 15Z" fill="#828282"/>
</svg>
