<svg width="30" height="30" viewBox="0 0 30 30" fill="none" xmlns="http://www.w3.org/2000/svg">
<g clip-path="url(#clip0_11_79)">
<path d="M29.5629 0.179742C29.2851 -0.012251 28.9338 -0.0531007 28.6234 0.0653633L19.665 3.44363L10.7026 0.0653633C10.674 0.0531084 10.6413 0.0490235 10.6087 0.0408535C10.5637 0.0285986 10.5147 0.0122588 10.4657 0.0081738C10.4208 0.00408883 10.3758 0.0081738 10.3309 0.0081738C10.2941 0.0081738 10.2614 0.0081738 10.2247 0.0081738C10.1675 0.0163437 10.1144 0.0326836 10.0613 0.0449385C10.0368 0.0531084 10.0123 0.0531084 9.99183 0.0612784H9.98775C9.98775 0.0612784 9.98774 0.0612784 9.98366 0.0612784L0.669935 3.49265C0.269608 3.63971 0 4.0237 0 4.45262V28.2966C0 28.6315 0.163399 28.942 0.437091 29.134C0.612745 29.2565 0.816993 29.3178 1.02124 29.3178C1.13971 29.3178 1.25817 29.2974 1.37255 29.2565L10.335 25.9559L19.2974 29.3382C19.2974 29.3382 19.3219 29.3464 19.3382 29.3505C19.3546 29.3546 19.3709 29.3587 19.3873 29.3627C19.4771 29.3873 19.567 29.4036 19.6569 29.4036C19.7467 29.4036 19.8366 29.3873 19.9265 29.3627C19.9428 29.3587 19.9592 29.3546 19.9755 29.3505C19.9877 29.3464 20.0041 29.3464 20.0163 29.3382L29.3341 25.8211C29.7304 25.6699 29.9959 25.29 29.9959 24.8652V1.02125C29.9959 0.686278 29.8325 0.371736 29.5547 0.179742H29.5629ZM2.04248 5.1634L9.31781 2.48366V24.1503L2.04248 26.8301V5.1634ZM11.3603 2.5L18.6397 5.2451V26.9036L11.3603 24.1585V2.5ZM27.9575 24.1585L20.6822 26.9036V5.2451L27.9575 2.5V24.1585Z" fill="white"/>
</g>
<defs>
<clipPath id="clip0_11_79">
<rect width="30" height="29.4036" fill="white"/>
</clipPath>
</defs>
</svg>
