<svg width="30" height="29" viewBox="0 0 30 29" fill="none" xmlns="http://www.w3.org/2000/svg">
<g clip-path="url(#clip0_11_74)">
<path d="M29.7824 7.81163L25.2078 2.11714C25.0218 1.88366 24.7369 1.74911 24.4361 1.74911H19.8576V0.989315C19.8576 0.443213 19.4143 0 18.8682 0H11.571C11.0249 0 10.5817 0.443213 10.5817 0.989315V6.6759H5.55997C5.26317 6.6759 4.98221 6.80649 4.79622 7.03601L0.22558 12.5999C-0.0712147 12.964 -0.0751719 13.4824 0.217665 13.8465L4.79226 19.541C4.97825 19.7744 5.26317 19.909 5.56393 19.909H10.5857V27.9699C10.5857 28.516 11.0289 28.9592 11.575 28.9592C12.1211 28.9592 12.5643 28.516 12.5643 27.9699V19.909H17.8829V27.9699C17.8829 28.516 18.3261 28.9592 18.8722 28.9592C19.4183 28.9592 19.8615 28.516 19.8615 27.9699V14.9861H24.4401C24.7369 14.9861 25.0178 14.8556 25.2038 14.626L29.7784 9.06213C30.0752 8.69806 30.0792 8.17966 29.7863 7.81559L29.7824 7.81163ZM12.5604 1.97863H17.8789V6.6759H12.5604V1.97863ZM6.03484 17.9304L2.26357 13.2331L6.03088 8.65057H17.8829V17.9264H6.03484V17.9304ZM23.9731 13.0075H19.8615V9.54096H23.7673C24.3134 9.54096 24.7566 9.09774 24.7566 8.55164C24.7566 8.00554 24.3134 7.56233 23.7673 7.56233H19.8615V3.72774H23.9692L27.7404 8.42501L23.9731 13.0075Z" fill="white"/>
<path d="M15.3225 12.2675H7.14288C6.59678 12.2675 6.15356 12.7107 6.15356 13.2568C6.15356 13.8029 6.59678 14.2461 7.14288 14.2461H15.3225C15.8686 14.2461 16.3119 13.8029 16.3119 13.2568C16.3119 12.7107 15.8686 12.2675 15.3225 12.2675Z" fill="white"/>
</g>
<defs>
<clipPath id="clip0_11_74">
<rect width="30" height="28.9592" fill="white"/>
</clipPath>
</defs>
</svg>
